<?xml version="1.0" encoding="utf-8"?>
<!-- Generator: Adobe Illustrator 19.2.1, SVG Export Plug-In . SVG Version: 6.00 Build 0)  -->
<svg version="1.1" id="Layer_1" xmlns="http://www.w3.org/2000/svg" xmlns:xlink="http://www.w3.org/1999/xlink" x="0px" y="0px"
	 viewBox="0 0 39.9 54.2" style="enable-background:new 0 0 39.9 54.2;" xml:space="preserve">
<path d="M21,19.4C21,19.4,21,19.4,21,19.4c2.3,0,4.7-0.4,7.3-1.5C39.8,13.3,39.9,4.6,39.9,4.2c0-0.7-0.4-1.3-1-1.7
	C38.8,2.5,34.6,0,29.1,0c-2.5,0-4.9,0.5-7.2,1.5C14.1,5,12.1,11.7,11.8,13.4c-0.8,1.4-3.9,7.4-3.4,15c0.5,8.3,2.8,12.8,2.9,13
	c0.4,0.7,1,1.1,1.8,1.1c0.3,0,0.6-0.1,0.9-0.2c1-0.5,1.4-1.7,0.9-2.7c0,0-0.6-1.3-1.3-3.6c1.5,0.1,2.9,0.6,4,1.6
	c1.3,1.1,2,2.7,2,4.3c0,4.4-3.6,8.3-7.6,8.3c-3.6,0-5.7-1.2-7.1-3.9c-1-2-1.1-4.5-0.4-6.3c0.3-0.6,0.7-1.3,1.4-1.4
	c1.1-0.3,1.7-1.3,1.4-2.4c-0.3-1.1-1.3-1.7-2.4-1.4c-1.8,0.4-3.2,1.7-4.1,3.7c-1.3,2.9-1.1,6.7,0.4,9.7c2.1,4.1,5.6,6,10.6,6
	c6.2,0,11.6-5.7,11.6-12.3c0-0.1,0-0.3,0-0.4c4.3-0.9,7.6-4.7,7.6-9.3c0-5.2-4.3-9.5-9.5-9.5c-1.6,0-3.1,0.4-4.5,1.1
	c-0.7-1.9-1.1-3.9-1.3-5.5C17.1,18.9,18.8,19.4,21,19.4z M23.4,5.1C25.2,4.4,27.1,4,29.1,4c2.9,0,5.4,0.9,6.7,1.5
	c-0.5,2-2.3,6.1-8.9,8.8c-2.1,0.9-4.1,1.2-5.8,1.2h0c-1.7,0-3-0.3-3.9-0.8c2.5-0.9,6.5-2.3,10.1-3.4c1-0.3,1.6-1.4,1.3-2.5
	c-0.3-1-1.4-1.6-2.5-1.3c-3.9,1.2-6.7,2.2-8.8,2.9C18.5,8.5,20.4,6.5,23.4,5.1z M27.1,32.2c0,2.7-2,5-4.6,5.5
	c-0.6-1.1-1.4-2.2-2.3-3c-2-1.8-4.7-2.7-7.4-2.6c-0.2-1.2-0.3-2.5-0.4-3.9c-0.1-1.8,0-3.6,0.3-5.2c0.2,0.8,0.5,1.6,0.8,2.4
	c0.3,0.8,0.7,1.6,1,2.2c0,0,0,0,0,0c2,3.9,3.9,4.9,4.3,5.1c0,0,1.9,0.9,2.7-0.7c0.8-1.6-1-2.9-0.9-2.8c0,0-0.7-0.4-1.6-1.8
	c0.8-0.5,1.8-0.7,2.7-0.7C24.6,26.6,27.1,29.1,27.1,32.2z"/>
</svg>
